<?xml version="1.0" standalone="no"?>
<!DOCTYPE svg PUBLIC "-//W3C//DTD SVG 20010904//EN"
 "http://www.w3.org/TR/2001/REC-SVG-20010904/DTD/svg10.dtd">
<svg version="1.0" xmlns="http://www.w3.org/2000/svg"
 width="260.000000pt" height="260.000000pt" viewBox="0 0 260.000000 260.000000"
 preserveAspectRatio="xMidYMid meet">
<metadata>
Created by potrace 1.14, written by Peter Selinger 2001-2017
</metadata>
<g transform="translate(0.000000,260.000000) scale(0.100000,-0.100000)"
fill="#000000" stroke="none">
<path d="M1081 2575 c-404 -71 -765 -343 -941 -709 -87 -181 -124 -345 -124
-556 -1 -162 12 -251 56 -390 65 -204 166 -370 322 -525 259 -258 590 -387
956 -371 337 14 626 142 861 383 149 152 238 298 305 498 88 263 84 572 -11
835 -152 421 -504 726 -950 826 -100 22 -367 27 -474 9z m275 -134 c21 -16
162 -152 312 -303 262 -265 272 -276 272 -313 0 -38 -10 -49 -292 -332 -160
-160 -304 -297 -320 -304 -21 -9 -35 -9 -56 0 -16 7 -160 144 -320 305 -282
282 -292 294 -292 331 0 37 9 48 202 242 l202 203 73 -72 c67 -66 73 -76 73
-113 0 -33 6 -47 30 -70 l30 -29 0 -167 0 -167 -30 -30 c-34 -35 -41 -92 -15
-129 20 -29 75 -46 107 -34 33 13 68 58 68 88 0 28 -26 83 -40 83 -6 0 -10 69
-10 177 l0 177 63 -62 c56 -56 62 -66 62 -103 0 -34 6 -46 33 -70 41 -36 80
-38 120 -4 73 61 33 169 -61 168 -26 -1 -44 11 -99 65 -61 59 -68 71 -68 105
0 54 -43 97 -96 97 -34 0 -46 8 -106 67 -38 37 -68 72 -68 78 0 13 119 131
140 138 30 11 48 6 86 -22z m-748 -1401 c20 -8 32 -19 32 -30 0 -10 9 -20 20
-23 17 -4 20 0 20 29 l0 34 181 0 c172 0 181 -1 186 -20 3 -11 12 -20 19 -20
10 0 14 -14 14 -49 0 -55 -7 -61 -71 -61 l-39 0 -2 -177 -3 -178 -62 -3 c-52
-2 -63 0 -63 13 0 8 -9 15 -20 15 -19 0 -20 7 -20 154 0 156 -4 191 -22 180
-16 -10 -58 5 -58 21 0 8 -9 15 -19 15 -11 0 -21 6 -24 13 -2 6 -9 -5 -16 -26
-12 -35 -15 -38 -40 -31 -38 12 -131 11 -132 -1 -1 -5 24 -23 55 -39 36 -18
71 -46 96 -78 34 -43 40 -58 40 -97 0 -61 -29 -107 -83 -131 -74 -34 -225 -21
-248 22 -5 10 -16 18 -24 18 -12 0 -15 14 -15 60 0 33 1 60 3 60 2 0 24 -7 49
-16 57 -19 142 -16 146 6 1 10 -13 21 -41 33 -58 23 -143 106 -152 147 -16 72
28 148 98 170 38 11 149 6 195 -10z m1650 0 c21 -8 32 -19 32 -31 0 -10 6 -19
14 -19 24 0 26 -15 9 -59 -15 -39 -19 -42 -42 -35 -38 12 -131 11 -132 -1 -1
-5 24 -23 55 -39 36 -18 71 -46 96 -78 34 -43 40 -58 40 -97 0 -61 -29 -107
-83 -131 -74 -34 -225 -21 -248 22 -5 10 -16 18 -24 18 -12 0 -15 14 -15 60 0
33 1 60 3 60 2 0 24 -7 49 -16 57 -19 142 -16 146 6 1 10 -13 21 -41 33 -58
23 -143 106 -152 147 -16 72 28 148 98 170 38 11 149 6 195 -10z m-868 0 c0
-5 8 -17 19 -27 16 -16 161 -429 161 -461 0 -10 -17 -12 -67 -10 -48 2 -67 7
-65 16 1 6 -7 12 -17 12 -12 0 -23 10 -29 28 -9 26 -11 27 -70 24 l-62 -4 -10
-39 -11 -39 -70 0 c-59 0 -70 3 -65 15 4 11 -1 15 -19 15 -14 0 -25 4 -25 9 0
5 34 113 75 240 l76 231 89 0 c51 0 90 -4 90 -10z m530 -9 c0 -11 9 -21 21
-24 19 -5 20 -10 14 -49 -9 -51 -17 -58 -72 -58 l-43 0 0 -180 0 -180 -66 0
c-55 0 -65 3 -60 15 4 11 -1 15 -19 15 l-25 0 0 171 c0 117 -3 168 -11 164
-16 -11 -59 4 -59 19 0 8 -10 16 -22 18 -20 3 -23 10 -26 56 l-3 52 185 0
c176 0 186 -1 186 -19z"/>
<path d="M1312 816 c-13 -45 -12 -49 16 -44 17 3 18 6 7 43 l-12 40 -11 -39z"/>
</g>
</svg>
